<mxfile host="app.diagrams.net" agent="Mozilla/5.0 (Windows NT 10.0; Win64; x64) AppleWebKit/537.36 (KHTML, like Gecko) Chrome/131.0.0.0 Safari/537.36" version="25.0.3">
  <diagram id="C5RBs43oDa-KdzZeNtuy" name="Page-1">
    <mxGraphModel dx="1290" dy="522" grid="1" gridSize="10" guides="1" tooltips="1" connect="1" arrows="1" fold="1" page="1" pageScale="1" pageWidth="827" pageHeight="1169" math="0" shadow="0">
      <root>
        <mxCell id="WIyWlLk6GJQsqaUBKTNV-0" />
        <mxCell id="WIyWlLk6GJQsqaUBKTNV-1" parent="WIyWlLk6GJQsqaUBKTNV-0" />
        <mxCell id="YtlHLcUOZUOOVo9SVOrg-0" value="Airline" style="swimlane;fontStyle=1;align=center;verticalAlign=top;childLayout=stackLayout;horizontal=1;startSize=26;horizontalStack=0;resizeParent=1;resizeParentMax=0;resizeLast=0;collapsible=1;marginBottom=0;whiteSpace=wrap;html=1;" vertex="1" parent="WIyWlLk6GJQsqaUBKTNV-1">
          <mxGeometry x="600" y="220" width="160" height="190" as="geometry" />
        </mxCell>
        <mxCell id="YtlHLcUOZUOOVo9SVOrg-1" value="&lt;span style=&quot;text-wrap-mode: nowrap;&quot;&gt;- Air_ID:Int {key}&lt;/span&gt;&lt;div style=&quot;text-wrap-mode: nowrap;&quot;&gt;- Air_Name: string&lt;/div&gt;&lt;div style=&quot;text-wrap-mode: nowrap;&quot;&gt;- Air_Policy: string&lt;/div&gt;&lt;div style=&quot;text-wrap-mode: nowrap;&quot;&gt;- Air_Email: string&lt;/div&gt;&lt;div style=&quot;text-wrap-mode: nowrap;&quot;&gt;- Air_phoneNum: string&lt;/div&gt;&lt;div style=&quot;text-wrap-mode: nowrap;&quot;&gt;- Air_Website: string&lt;/div&gt;" style="text;strokeColor=none;fillColor=none;align=left;verticalAlign=top;spacingLeft=4;spacingRight=4;overflow=hidden;rotatable=0;points=[[0,0.5],[1,0.5]];portConstraint=eastwest;whiteSpace=wrap;html=1;" vertex="1" parent="YtlHLcUOZUOOVo9SVOrg-0">
          <mxGeometry y="26" width="160" height="104" as="geometry" />
        </mxCell>
        <mxCell id="YtlHLcUOZUOOVo9SVOrg-2" value="" style="line;strokeWidth=1;fillColor=none;align=left;verticalAlign=middle;spacingTop=-1;spacingLeft=3;spacingRight=3;rotatable=0;labelPosition=right;points=[];portConstraint=eastwest;strokeColor=inherit;" vertex="1" parent="YtlHLcUOZUOOVo9SVOrg-0">
          <mxGeometry y="130" width="160" height="60" as="geometry" />
        </mxCell>
        <mxCell id="YtlHLcUOZUOOVo9SVOrg-3" value="Hotels" style="swimlane;fontStyle=1;align=center;verticalAlign=top;childLayout=stackLayout;horizontal=1;startSize=26;horizontalStack=0;resizeParent=1;resizeParentMax=0;resizeLast=0;collapsible=1;marginBottom=0;whiteSpace=wrap;html=1;" vertex="1" parent="WIyWlLk6GJQsqaUBKTNV-1">
          <mxGeometry x="600" y="470" width="160" height="180" as="geometry" />
        </mxCell>
        <mxCell id="YtlHLcUOZUOOVo9SVOrg-4" value="&lt;div style=&quot;text-wrap-mode: nowrap;&quot;&gt;- H_ID : int {key}&lt;/div&gt;&lt;div style=&quot;text-wrap-mode: nowrap;&quot;&gt;- H_Name : string&lt;/div&gt;&lt;div style=&quot;text-wrap-mode: nowrap;&quot;&gt;- H_loc : string&lt;/div&gt;&lt;div style=&quot;text-wrap-mode: nowrap;&quot;&gt;- H_policy : string&lt;/div&gt;&lt;div style=&quot;text-wrap-mode: nowrap;&quot;&gt;- H_Email : string&lt;/div&gt;&lt;div style=&quot;text-wrap-mode: nowrap;&quot;&gt;- H_PhoneNum : string&lt;/div&gt;&lt;div style=&quot;text-wrap-mode: nowrap;&quot;&gt;- H_website : string&lt;/div&gt;" style="text;strokeColor=none;fillColor=none;align=left;verticalAlign=top;spacingLeft=4;spacingRight=4;overflow=hidden;rotatable=0;points=[[0,0.5],[1,0.5]];portConstraint=eastwest;whiteSpace=wrap;html=1;" vertex="1" parent="YtlHLcUOZUOOVo9SVOrg-3">
          <mxGeometry y="26" width="160" height="114" as="geometry" />
        </mxCell>
        <mxCell id="YtlHLcUOZUOOVo9SVOrg-5" value="" style="line;strokeWidth=1;fillColor=none;align=left;verticalAlign=middle;spacingTop=-1;spacingLeft=3;spacingRight=3;rotatable=0;labelPosition=right;points=[];portConstraint=eastwest;strokeColor=inherit;" vertex="1" parent="YtlHLcUOZUOOVo9SVOrg-3">
          <mxGeometry y="140" width="160" height="40" as="geometry" />
        </mxCell>
        <mxCell id="YtlHLcUOZUOOVo9SVOrg-6" value="Car_comp&lt;div&gt;&lt;br&gt;&lt;/div&gt;" style="swimlane;fontStyle=1;align=center;verticalAlign=top;childLayout=stackLayout;horizontal=1;startSize=26;horizontalStack=0;resizeParent=1;resizeParentMax=0;resizeLast=0;collapsible=1;marginBottom=0;whiteSpace=wrap;html=1;" vertex="1" parent="WIyWlLk6GJQsqaUBKTNV-1">
          <mxGeometry x="600" y="730" width="160" height="200" as="geometry" />
        </mxCell>
        <mxCell id="YtlHLcUOZUOOVo9SVOrg-7" value="&lt;span style=&quot;background-color: initial;&quot;&gt;-&amp;nbsp;&lt;/span&gt;&lt;span style=&quot;background-color: initial; text-wrap-mode: nowrap;&quot;&gt;Comp_ID: int {key}&lt;/span&gt;&lt;div&gt;&lt;div style=&quot;text-wrap-mode: nowrap;&quot;&gt;- Comp_name: string&lt;/div&gt;&lt;div style=&quot;text-wrap-mode: nowrap;&quot;&gt;- Pichup_Loc: string&lt;/div&gt;&lt;div style=&quot;text-wrap-mode: nowrap;&quot;&gt;- Dropoff_loc: string&lt;/div&gt;&lt;div style=&quot;text-wrap-mode: nowrap;&quot;&gt;- Camp_policy: string&lt;/div&gt;&lt;div style=&quot;text-wrap-mode: nowrap;&quot;&gt;- Comp_Email: string&lt;/div&gt;&lt;div style=&quot;text-wrap-mode: nowrap;&quot;&gt;- Comp_PhoneNum : string&lt;/div&gt;&lt;div style=&quot;text-wrap-mode: nowrap;&quot;&gt;- Comp_Website: string&lt;/div&gt;&lt;/div&gt;&lt;div&gt;&lt;br&gt;&lt;/div&gt;" style="text;strokeColor=none;fillColor=none;align=left;verticalAlign=top;spacingLeft=4;spacingRight=4;overflow=hidden;rotatable=0;points=[[0,0.5],[1,0.5]];portConstraint=eastwest;whiteSpace=wrap;html=1;" vertex="1" parent="YtlHLcUOZUOOVo9SVOrg-6">
          <mxGeometry y="26" width="160" height="124" as="geometry" />
        </mxCell>
        <mxCell id="YtlHLcUOZUOOVo9SVOrg-8" value="" style="line;strokeWidth=1;fillColor=none;align=left;verticalAlign=middle;spacingTop=-1;spacingLeft=3;spacingRight=3;rotatable=0;labelPosition=right;points=[];portConstraint=eastwest;strokeColor=inherit;" vertex="1" parent="YtlHLcUOZUOOVo9SVOrg-6">
          <mxGeometry y="150" width="160" height="50" as="geometry" />
        </mxCell>
        <mxCell id="YtlHLcUOZUOOVo9SVOrg-9" value="UserProfile" style="swimlane;fontStyle=1;align=center;verticalAlign=top;childLayout=stackLayout;horizontal=1;startSize=26;horizontalStack=0;resizeParent=1;resizeParentMax=0;resizeLast=0;collapsible=1;marginBottom=0;whiteSpace=wrap;html=1;" vertex="1" parent="WIyWlLk6GJQsqaUBKTNV-1">
          <mxGeometry x="30" y="615" width="190" height="210" as="geometry" />
        </mxCell>
        <mxCell id="YtlHLcUOZUOOVo9SVOrg-10" value="- Cust_id: int {key}&lt;div&gt;- Cust_name: string&lt;/div&gt;&lt;div&gt;- Cust_phoneNum: string&lt;/div&gt;&lt;div&gt;- Cust_Email: string&lt;/div&gt;&lt;div&gt;- Cust_Address: string&lt;/div&gt;&lt;div&gt;- Nationality: string&lt;/div&gt;&lt;div&gt;- Bank_Acc: int&lt;/div&gt;&lt;div&gt;- Date_Birth: date&lt;/div&gt;&lt;div&gt;- auth_Credit_Worthiness: bool&lt;/div&gt;&lt;div&gt;&lt;br style=&quot;text-align: center;&quot;&gt;&lt;/div&gt;" style="text;strokeColor=none;fillColor=none;align=left;verticalAlign=top;spacingLeft=4;spacingRight=4;overflow=hidden;rotatable=0;points=[[0,0.5],[1,0.5]];portConstraint=eastwest;whiteSpace=wrap;html=1;" vertex="1" parent="YtlHLcUOZUOOVo9SVOrg-9">
          <mxGeometry y="26" width="190" height="134" as="geometry" />
        </mxCell>
        <mxCell id="YtlHLcUOZUOOVo9SVOrg-11" value="" style="line;strokeWidth=1;fillColor=none;align=left;verticalAlign=middle;spacingTop=-1;spacingLeft=3;spacingRight=3;rotatable=0;labelPosition=right;points=[];portConstraint=eastwest;strokeColor=inherit;" vertex="1" parent="YtlHLcUOZUOOVo9SVOrg-9">
          <mxGeometry y="160" width="190" height="50" as="geometry" />
        </mxCell>
        <mxCell id="YtlHLcUOZUOOVo9SVOrg-12" value="Order" style="swimlane;fontStyle=1;align=center;verticalAlign=top;childLayout=stackLayout;horizontal=1;startSize=26;horizontalStack=0;resizeParent=1;resizeParentMax=0;resizeLast=0;collapsible=1;marginBottom=0;whiteSpace=wrap;html=1;" vertex="1" parent="WIyWlLk6GJQsqaUBKTNV-1">
          <mxGeometry x="250" y="470" width="220" height="200" as="geometry" />
        </mxCell>
        <mxCell id="YtlHLcUOZUOOVo9SVOrg-13" value="&lt;span style=&quot;text-wrap-mode: nowrap;&quot;&gt;- Ord_Id : int {key}&lt;/span&gt;&lt;div style=&quot;text-wrap-mode: nowrap;&quot;&gt;- Booking _Status: bool&lt;/div&gt;&lt;div style=&quot;text-wrap-mode: nowrap;&quot;&gt;- Products: string&lt;/div&gt;&lt;div style=&quot;text-wrap-mode: nowrap;&quot;&gt;- SalesDept_Empl: string&lt;/div&gt;&lt;div style=&quot;text-wrap-mode: nowrap;&quot;&gt;- Cust_Pref: string&lt;/div&gt;&lt;div style=&quot;text-wrap-mode: nowrap;&quot;&gt;- Ord_date: date&lt;/div&gt;&lt;div style=&quot;text-wrap-mode: nowrap;&quot;&gt;- Ord_application: blob&lt;/div&gt;&lt;div style=&quot;text-wrap-mode: nowrap;&quot;&gt;- Sales_dept._digital_signature : blob&lt;/div&gt;" style="text;strokeColor=none;fillColor=none;align=left;verticalAlign=top;spacingLeft=4;spacingRight=4;overflow=hidden;rotatable=0;points=[[0,0.5],[1,0.5]];portConstraint=eastwest;whiteSpace=wrap;html=1;" vertex="1" parent="YtlHLcUOZUOOVo9SVOrg-12">
          <mxGeometry y="26" width="220" height="124" as="geometry" />
        </mxCell>
        <mxCell id="YtlHLcUOZUOOVo9SVOrg-14" value="" style="line;strokeWidth=1;fillColor=none;align=left;verticalAlign=middle;spacingTop=-1;spacingLeft=3;spacingRight=3;rotatable=0;labelPosition=right;points=[];portConstraint=eastwest;strokeColor=inherit;" vertex="1" parent="YtlHLcUOZUOOVo9SVOrg-12">
          <mxGeometry y="150" width="220" height="50" as="geometry" />
        </mxCell>
        <mxCell id="YtlHLcUOZUOOVo9SVOrg-15" style="edgeStyle=orthogonalEdgeStyle;rounded=0;orthogonalLoop=1;jettySize=auto;html=1;entryX=0;entryY=0.5;entryDx=0;entryDy=0;" edge="1" parent="WIyWlLk6GJQsqaUBKTNV-1" source="YtlHLcUOZUOOVo9SVOrg-10" target="YtlHLcUOZUOOVo9SVOrg-13">
          <mxGeometry relative="1" as="geometry" />
        </mxCell>
        <mxCell id="YtlHLcUOZUOOVo9SVOrg-22" style="edgeStyle=orthogonalEdgeStyle;rounded=0;orthogonalLoop=1;jettySize=auto;html=1;" edge="1" parent="WIyWlLk6GJQsqaUBKTNV-1" source="YtlHLcUOZUOOVo9SVOrg-20">
          <mxGeometry relative="1" as="geometry">
            <mxPoint x="110" y="610" as="targetPoint" />
          </mxGeometry>
        </mxCell>
        <mxCell id="YtlHLcUOZUOOVo9SVOrg-20" value="&lt;div&gt;&amp;lt;&amp;lt;controller&amp;gt;&amp;gt;&lt;/div&gt;SelectPrefrencesHandler" style="swimlane;fontStyle=1;align=center;verticalAlign=top;childLayout=stackLayout;horizontal=1;startSize=50;horizontalStack=0;resizeParent=1;resizeParentMax=0;resizeLast=0;collapsible=1;marginBottom=0;whiteSpace=wrap;html=1;" vertex="1" parent="WIyWlLk6GJQsqaUBKTNV-1">
          <mxGeometry x="30" y="330" width="160" height="80" as="geometry" />
        </mxCell>
        <mxCell id="YtlHLcUOZUOOVo9SVOrg-21" value="" style="line;strokeWidth=1;fillColor=none;align=left;verticalAlign=middle;spacingTop=-1;spacingLeft=3;spacingRight=3;rotatable=0;labelPosition=right;points=[];portConstraint=eastwest;strokeColor=inherit;" vertex="1" parent="YtlHLcUOZUOOVo9SVOrg-20">
          <mxGeometry y="50" width="160" height="30" as="geometry" />
        </mxCell>
        <mxCell id="YtlHLcUOZUOOVo9SVOrg-23" style="edgeStyle=orthogonalEdgeStyle;rounded=0;orthogonalLoop=1;jettySize=auto;html=1;entryX=0;entryY=0.5;entryDx=0;entryDy=0;" edge="1" parent="WIyWlLk6GJQsqaUBKTNV-1" source="YtlHLcUOZUOOVo9SVOrg-13" target="YtlHLcUOZUOOVo9SVOrg-1">
          <mxGeometry relative="1" as="geometry" />
        </mxCell>
        <mxCell id="YtlHLcUOZUOOVo9SVOrg-25" value="" style="endArrow=classic;html=1;rounded=0;exitX=1.004;exitY=0.816;exitDx=0;exitDy=0;exitPerimeter=0;entryX=0.008;entryY=0.681;entryDx=0;entryDy=0;entryPerimeter=0;" edge="1" parent="WIyWlLk6GJQsqaUBKTNV-1" source="YtlHLcUOZUOOVo9SVOrg-13" target="YtlHLcUOZUOOVo9SVOrg-7">
          <mxGeometry width="50" height="50" relative="1" as="geometry">
            <mxPoint x="570" y="705" as="sourcePoint" />
            <mxPoint x="520" y="930" as="targetPoint" />
            <Array as="points">
              <mxPoint x="520" y="597" />
              <mxPoint x="520" y="840" />
            </Array>
          </mxGeometry>
        </mxCell>
        <mxCell id="YtlHLcUOZUOOVo9SVOrg-27" value="" style="endArrow=classic;html=1;rounded=0;exitX=1.007;exitY=0.635;exitDx=0;exitDy=0;exitPerimeter=0;entryX=0.003;entryY=0.691;entryDx=0;entryDy=0;entryPerimeter=0;" edge="1" parent="WIyWlLk6GJQsqaUBKTNV-1" source="YtlHLcUOZUOOVo9SVOrg-13" target="YtlHLcUOZUOOVo9SVOrg-4">
          <mxGeometry width="50" height="50" relative="1" as="geometry">
            <mxPoint x="390" y="680" as="sourcePoint" />
            <mxPoint x="440" y="630" as="targetPoint" />
          </mxGeometry>
        </mxCell>
      </root>
    </mxGraphModel>
  </diagram>
</mxfile>
